<mxfile host="app.diagrams.net" agent="Mozilla/5.0 (X11; Linux x86_64; rv:133.0) Gecko/20100101 Firefox/133.0" version="25.0.1">
  <diagram id="R2lEEEUBdFMjLlhIrx00" name="Page-1">
    <mxGraphModel dx="923" dy="774" grid="1" gridSize="10" guides="1" tooltips="1" connect="1" arrows="1" fold="1" page="1" pageScale="1" pageWidth="827" pageHeight="1169" math="0" shadow="0" extFonts="Permanent Marker^https://fonts.googleapis.com/css?family=Permanent+Marker">
      <root>
        <mxCell id="0" />
        <mxCell id="1" parent="0" />
        <mxCell id="xrPw1rmMllOHUSr7kEiK-1" value="Copia" style="whiteSpace=wrap;html=1;align=center;" parent="1" vertex="1">
          <mxGeometry x="320" y="60" width="100" height="40" as="geometry" />
        </mxCell>
        <mxCell id="xrPw1rmMllOHUSr7kEiK-2" value="Utente" style="whiteSpace=wrap;html=1;align=center;" parent="1" vertex="1">
          <mxGeometry x="555.5" y="502.5" width="100" height="40" as="geometry" />
        </mxCell>
        <mxCell id="xrPw1rmMllOHUSr7kEiK-10" value="Libro" style="whiteSpace=wrap;html=1;align=center;" parent="1" vertex="1">
          <mxGeometry x="80" y="190" width="100" height="40" as="geometry" />
        </mxCell>
        <mxCell id="xrPw1rmMllOHUSr7kEiK-13" value="CF" style="text;strokeColor=none;fillColor=none;spacingLeft=4;spacingRight=4;overflow=hidden;rotatable=0;points=[[0,0.5],[1,0.5]];portConstraint=eastwest;fontSize=12;whiteSpace=wrap;html=1;" parent="1" vertex="1">
          <mxGeometry x="685.5" y="477.5" width="40" height="30" as="geometry" />
        </mxCell>
        <mxCell id="xrPw1rmMllOHUSr7kEiK-19" value="" style="ellipse;whiteSpace=wrap;html=1;aspect=fixed;" parent="1" vertex="1">
          <mxGeometry x="675.5" y="542.5" width="10" height="10" as="geometry" />
        </mxCell>
        <mxCell id="xrPw1rmMllOHUSr7kEiK-21" value="" style="ellipse;whiteSpace=wrap;html=1;aspect=fixed;fillColor=#000000;" parent="1" vertex="1">
          <mxGeometry x="675.5" y="487.5" width="10" height="10" as="geometry" />
        </mxCell>
        <mxCell id="xrPw1rmMllOHUSr7kEiK-24" value="" style="endArrow=none;html=1;rounded=0;entryX=0;entryY=0.5;entryDx=0;entryDy=0;" parent="1" source="xrPw1rmMllOHUSr7kEiK-2" target="xrPw1rmMllOHUSr7kEiK-21" edge="1">
          <mxGeometry width="50" height="50" relative="1" as="geometry">
            <mxPoint x="345.5" y="752.5" as="sourcePoint" />
            <mxPoint x="395.5" y="702.5" as="targetPoint" />
          </mxGeometry>
        </mxCell>
        <mxCell id="xrPw1rmMllOHUSr7kEiK-26" value="" style="endArrow=none;html=1;rounded=0;exitX=1;exitY=0.75;exitDx=0;exitDy=0;entryX=0;entryY=0.5;entryDx=0;entryDy=0;" parent="1" source="xrPw1rmMllOHUSr7kEiK-2" target="xrPw1rmMllOHUSr7kEiK-19" edge="1">
          <mxGeometry width="50" height="50" relative="1" as="geometry">
            <mxPoint x="615.5" y="512.5" as="sourcePoint" />
            <mxPoint x="675.5" y="472.5" as="targetPoint" />
          </mxGeometry>
        </mxCell>
        <mxCell id="xrPw1rmMllOHUSr7kEiK-27" value="Titolo" style="text;html=1;align=center;verticalAlign=middle;whiteSpace=wrap;rounded=0;" parent="1" vertex="1">
          <mxGeometry x="10" y="170" width="60" height="30" as="geometry" />
        </mxCell>
        <mxCell id="xrPw1rmMllOHUSr7kEiK-28" value="ISBN" style="text;html=1;align=center;verticalAlign=middle;whiteSpace=wrap;rounded=0;" parent="1" vertex="1">
          <mxGeometry x="10" y="140" width="60" height="30" as="geometry" />
        </mxCell>
        <mxCell id="xrPw1rmMllOHUSr7kEiK-29" value="" style="ellipse;whiteSpace=wrap;html=1;aspect=fixed;fillColor=#000000;" parent="1" vertex="1">
          <mxGeometry x="60" y="150" width="10" height="10" as="geometry" />
        </mxCell>
        <mxCell id="xrPw1rmMllOHUSr7kEiK-30" value="" style="ellipse;whiteSpace=wrap;html=1;aspect=fixed;" parent="1" vertex="1">
          <mxGeometry x="60" y="180" width="10" height="10" as="geometry" />
        </mxCell>
        <mxCell id="xrPw1rmMllOHUSr7kEiK-31" value="" style="endArrow=none;html=1;rounded=0;entryX=0;entryY=0.5;entryDx=0;entryDy=0;exitX=1;exitY=1;exitDx=0;exitDy=0;" parent="1" source="xrPw1rmMllOHUSr7kEiK-30" target="xrPw1rmMllOHUSr7kEiK-10" edge="1">
          <mxGeometry width="50" height="50" relative="1" as="geometry">
            <mxPoint x="460" y="440" as="sourcePoint" />
            <mxPoint x="510" y="390" as="targetPoint" />
          </mxGeometry>
        </mxCell>
        <mxCell id="xrPw1rmMllOHUSr7kEiK-32" value="" style="endArrow=none;html=1;rounded=0;entryX=1;entryY=0.5;entryDx=0;entryDy=0;exitX=0.5;exitY=0;exitDx=0;exitDy=0;" parent="1" source="xrPw1rmMllOHUSr7kEiK-10" target="xrPw1rmMllOHUSr7kEiK-28" edge="1">
          <mxGeometry width="50" height="50" relative="1" as="geometry">
            <mxPoint x="460" y="440" as="sourcePoint" />
            <mxPoint x="510" y="390" as="targetPoint" />
          </mxGeometry>
        </mxCell>
        <mxCell id="xrPw1rmMllOHUSr7kEiK-33" value="Nome" style="text;strokeColor=none;fillColor=none;spacingLeft=4;spacingRight=4;overflow=hidden;rotatable=0;points=[[0,0.5],[1,0.5]];portConstraint=eastwest;fontSize=12;whiteSpace=wrap;html=1;" parent="1" vertex="1">
          <mxGeometry x="685.5" y="532.5" width="50" height="30" as="geometry" />
        </mxCell>
        <mxCell id="xrPw1rmMllOHUSr7kEiK-39" value="ID" style="text;html=1;align=center;verticalAlign=middle;whiteSpace=wrap;rounded=0;" parent="1" vertex="1">
          <mxGeometry x="290" y="10" width="60" height="30" as="geometry" />
        </mxCell>
        <mxCell id="xrPw1rmMllOHUSr7kEiK-44" value="" style="ellipse;whiteSpace=wrap;html=1;aspect=fixed;fillColor=#000000;" parent="1" vertex="1">
          <mxGeometry x="300" y="20" width="10" height="10" as="geometry" />
        </mxCell>
        <mxCell id="xrPw1rmMllOHUSr7kEiK-45" value="" style="endArrow=none;html=1;rounded=0;entryX=0.5;entryY=1;entryDx=0;entryDy=0;exitX=0;exitY=0;exitDx=0;exitDy=0;" parent="1" source="xrPw1rmMllOHUSr7kEiK-1" target="xrPw1rmMllOHUSr7kEiK-44" edge="1">
          <mxGeometry width="50" height="50" relative="1" as="geometry">
            <mxPoint x="410" y="220" as="sourcePoint" />
            <mxPoint x="460" y="170" as="targetPoint" />
          </mxGeometry>
        </mxCell>
        <mxCell id="xrPw1rmMllOHUSr7kEiK-63" value="" style="endArrow=none;html=1;rounded=0;entryX=1;entryY=0.5;entryDx=0;entryDy=0;exitX=0.099;exitY=0.456;exitDx=0;exitDy=0;exitPerimeter=0;" parent="1" source="xrPw1rmMllOHUSr7kEiK-64" target="xrPw1rmMllOHUSr7kEiK-10" edge="1">
          <mxGeometry width="50" height="50" relative="1" as="geometry">
            <mxPoint x="220" y="210" as="sourcePoint" />
            <mxPoint x="400" y="300" as="targetPoint" />
          </mxGeometry>
        </mxCell>
        <mxCell id="xrPw1rmMllOHUSr7kEiK-64" value="Posseduto" style="shape=rhombus;perimeter=rhombusPerimeter;whiteSpace=wrap;html=1;align=center;" parent="1" vertex="1">
          <mxGeometry x="160" y="50" width="120" height="60" as="geometry" />
        </mxCell>
        <mxCell id="xrPw1rmMllOHUSr7kEiK-65" value="" style="endArrow=none;html=1;rounded=0;entryX=0;entryY=0.5;entryDx=0;entryDy=0;exitX=1;exitY=0.5;exitDx=0;exitDy=0;" parent="1" source="xrPw1rmMllOHUSr7kEiK-64" target="xrPw1rmMllOHUSr7kEiK-1" edge="1">
          <mxGeometry width="50" height="50" relative="1" as="geometry">
            <mxPoint x="290" y="220" as="sourcePoint" />
            <mxPoint x="340" y="170" as="targetPoint" />
          </mxGeometry>
        </mxCell>
        <mxCell id="xrPw1rmMllOHUSr7kEiK-66" value="&lt;div&gt;(1,1)&lt;/div&gt;" style="text;strokeColor=none;fillColor=none;spacingLeft=4;spacingRight=4;overflow=hidden;rotatable=0;points=[[0,0.5],[1,0.5]];portConstraint=eastwest;fontSize=12;whiteSpace=wrap;html=1;" parent="1" vertex="1">
          <mxGeometry x="280" y="50" width="40" height="30" as="geometry" />
        </mxCell>
        <mxCell id="xrPw1rmMllOHUSr7kEiK-67" value="&lt;div&gt;(0,N)&lt;/div&gt;" style="text;strokeColor=none;fillColor=none;spacingLeft=4;spacingRight=4;overflow=hidden;rotatable=0;points=[[0,0.5],[1,0.5]];portConstraint=eastwest;fontSize=12;whiteSpace=wrap;html=1;" parent="1" vertex="1">
          <mxGeometry x="140" y="157.5" width="40" height="30" as="geometry" />
        </mxCell>
        <mxCell id="xrPw1rmMllOHUSr7kEiK-68" value="&lt;div&gt;Prestito&lt;/div&gt;" style="whiteSpace=wrap;html=1;align=center;" parent="1" vertex="1">
          <mxGeometry x="545.5" y="282.5" width="100" height="40" as="geometry" />
        </mxCell>
        <mxCell id="xrPw1rmMllOHUSr7kEiK-69" value="&lt;div&gt;Prestata&lt;/div&gt;" style="shape=rhombus;perimeter=rhombusPerimeter;whiteSpace=wrap;html=1;align=center;" parent="1" vertex="1">
          <mxGeometry x="500" y="50" width="120" height="60" as="geometry" />
        </mxCell>
        <mxCell id="xrPw1rmMllOHUSr7kEiK-70" value="Data Prestito" style="text;strokeColor=none;fillColor=none;spacingLeft=4;spacingRight=4;overflow=hidden;rotatable=0;points=[[0,0.5],[1,0.5]];portConstraint=eastwest;fontSize=12;whiteSpace=wrap;html=1;" parent="1" vertex="1">
          <mxGeometry x="705.5" y="282.5" width="80" height="30" as="geometry" />
        </mxCell>
        <mxCell id="xrPw1rmMllOHUSr7kEiK-71" value="&lt;div&gt;Data restituzione&lt;/div&gt;&lt;div&gt;effettiva&lt;/div&gt;" style="text;strokeColor=none;fillColor=none;spacingLeft=4;spacingRight=4;overflow=hidden;rotatable=0;points=[[0,0.5],[1,0.5]];portConstraint=eastwest;fontSize=12;whiteSpace=wrap;html=1;" parent="1" vertex="1">
          <mxGeometry x="413" y="240" width="100" height="30" as="geometry" />
        </mxCell>
        <mxCell id="xrPw1rmMllOHUSr7kEiK-74" value="" style="ellipse;whiteSpace=wrap;html=1;aspect=fixed;fontStyle=1" parent="1" vertex="1">
          <mxGeometry x="513" y="250" width="10" height="10" as="geometry" />
        </mxCell>
        <mxCell id="xrPw1rmMllOHUSr7kEiK-76" value="" style="ellipse;whiteSpace=wrap;html=1;aspect=fixed;fontStyle=1" parent="1" vertex="1">
          <mxGeometry x="695.5" y="292.5" width="10" height="10" as="geometry" />
        </mxCell>
        <mxCell id="xrPw1rmMllOHUSr7kEiK-78" value="" style="endArrow=none;html=1;rounded=0;entryX=0;entryY=0.5;entryDx=0;entryDy=0;exitX=1;exitY=0.5;exitDx=0;exitDy=0;" parent="1" source="xrPw1rmMllOHUSr7kEiK-74" target="xrPw1rmMllOHUSr7kEiK-68" edge="1">
          <mxGeometry width="50" height="50" relative="1" as="geometry">
            <mxPoint x="445.5" y="445" as="sourcePoint" />
            <mxPoint x="495.5" y="395" as="targetPoint" />
          </mxGeometry>
        </mxCell>
        <mxCell id="xrPw1rmMllOHUSr7kEiK-80" value="" style="endArrow=none;html=1;rounded=0;entryX=0;entryY=1;entryDx=0;entryDy=0;exitX=1;exitY=0.5;exitDx=0;exitDy=0;" parent="1" source="xrPw1rmMllOHUSr7kEiK-68" target="xrPw1rmMllOHUSr7kEiK-76" edge="1">
          <mxGeometry width="50" height="50" relative="1" as="geometry">
            <mxPoint x="445.5" y="445" as="sourcePoint" />
            <mxPoint x="495.5" y="395" as="targetPoint" />
          </mxGeometry>
        </mxCell>
        <mxCell id="xrPw1rmMllOHUSr7kEiK-81" value="" style="endArrow=none;html=1;rounded=0;entryX=0;entryY=0.5;entryDx=0;entryDy=0;exitX=1;exitY=0.5;exitDx=0;exitDy=0;" parent="1" source="xrPw1rmMllOHUSr7kEiK-1" edge="1">
          <mxGeometry width="50" height="50" relative="1" as="geometry">
            <mxPoint x="410" y="320" as="sourcePoint" />
            <mxPoint x="500" y="80" as="targetPoint" />
          </mxGeometry>
        </mxCell>
        <mxCell id="xrPw1rmMllOHUSr7kEiK-82" value="" style="endArrow=none;html=1;rounded=0;entryX=0.5;entryY=1;entryDx=0;entryDy=0;exitX=0.5;exitY=0;exitDx=0;exitDy=0;" parent="1" source="xrPw1rmMllOHUSr7kEiK-68" target="xrPw1rmMllOHUSr7kEiK-69" edge="1">
          <mxGeometry width="50" height="50" relative="1" as="geometry">
            <mxPoint x="460" y="270" as="sourcePoint" />
            <mxPoint x="510" y="220" as="targetPoint" />
          </mxGeometry>
        </mxCell>
        <mxCell id="xrPw1rmMllOHUSr7kEiK-83" value="Richiesta" style="shape=rhombus;perimeter=rhombusPerimeter;whiteSpace=wrap;html=1;align=center;" parent="1" vertex="1">
          <mxGeometry x="545.5" y="387.5" width="120" height="60" as="geometry" />
        </mxCell>
        <mxCell id="xrPw1rmMllOHUSr7kEiK-84" value="" style="endArrow=none;html=1;rounded=0;" parent="1" source="xrPw1rmMllOHUSr7kEiK-83" target="xrPw1rmMllOHUSr7kEiK-68" edge="1">
          <mxGeometry width="50" height="50" relative="1" as="geometry">
            <mxPoint x="460" y="540" as="sourcePoint" />
            <mxPoint x="510" y="490" as="targetPoint" />
          </mxGeometry>
        </mxCell>
        <mxCell id="xrPw1rmMllOHUSr7kEiK-85" value="" style="endArrow=none;html=1;rounded=0;" parent="1" source="xrPw1rmMllOHUSr7kEiK-2" target="xrPw1rmMllOHUSr7kEiK-83" edge="1">
          <mxGeometry width="50" height="50" relative="1" as="geometry">
            <mxPoint x="455.5" y="507.5" as="sourcePoint" />
            <mxPoint x="505.5" y="457.5" as="targetPoint" />
          </mxGeometry>
        </mxCell>
        <mxCell id="xrPw1rmMllOHUSr7kEiK-86" value="" style="endArrow=none;html=1;rounded=0;exitX=0;exitY=0.5;exitDx=0;exitDy=0;" parent="1" source="xrPw1rmMllOHUSr7kEiK-87" edge="1">
          <mxGeometry width="50" height="50" relative="1" as="geometry">
            <mxPoint x="555.5" y="355" as="sourcePoint" />
            <mxPoint x="545.5" y="255" as="targetPoint" />
            <Array as="points">
              <mxPoint x="665.5" y="360" />
              <mxPoint x="665.5" y="255" />
            </Array>
          </mxGeometry>
        </mxCell>
        <mxCell id="xrPw1rmMllOHUSr7kEiK-87" value="" style="ellipse;whiteSpace=wrap;html=1;aspect=fixed;fillColor=#000000;" parent="1" vertex="1">
          <mxGeometry x="535.5" y="355" width="10" height="10" as="geometry" />
        </mxCell>
        <mxCell id="xrPw1rmMllOHUSr7kEiK-91" value="(0,N)" style="text;strokeColor=none;fillColor=none;spacingLeft=4;spacingRight=4;overflow=hidden;rotatable=0;points=[[0,0.5],[1,0.5]];portConstraint=eastwest;fontSize=12;whiteSpace=wrap;html=1;" parent="1" vertex="1">
          <mxGeometry x="440" y="50" width="40" height="30" as="geometry" />
        </mxCell>
        <mxCell id="xrPw1rmMllOHUSr7kEiK-92" value="(1,1)" style="text;strokeColor=none;fillColor=none;spacingLeft=4;spacingRight=4;overflow=hidden;rotatable=0;points=[[0,0.5],[1,0.5]];portConstraint=eastwest;fontSize=12;whiteSpace=wrap;html=1;" parent="1" vertex="1">
          <mxGeometry x="570" y="100" width="40" height="30" as="geometry" />
        </mxCell>
        <mxCell id="xrPw1rmMllOHUSr7kEiK-93" value="(0,N)" style="text;strokeColor=none;fillColor=none;spacingLeft=4;spacingRight=4;overflow=hidden;rotatable=0;points=[[0,0.5],[1,0.5]];portConstraint=eastwest;fontSize=12;whiteSpace=wrap;html=1;" parent="1" vertex="1">
          <mxGeometry x="605.5" y="447.5" width="40" height="30" as="geometry" />
        </mxCell>
        <mxCell id="xrPw1rmMllOHUSr7kEiK-94" value="(1,1)" style="text;strokeColor=none;fillColor=none;spacingLeft=4;spacingRight=4;overflow=hidden;rotatable=0;points=[[0,0.5],[1,0.5]];portConstraint=eastwest;fontSize=12;whiteSpace=wrap;html=1;" parent="1" vertex="1">
          <mxGeometry x="605.5" y="365" width="40" height="30" as="geometry" />
        </mxCell>
        <mxCell id="xrPw1rmMllOHUSr7kEiK-96" value="&lt;div&gt;Prestito&lt;/div&gt;&lt;div&gt;Esteso&lt;br&gt;&lt;/div&gt;" style="whiteSpace=wrap;html=1;align=center;" parent="1" vertex="1">
          <mxGeometry x="260" y="147.5" width="100" height="40" as="geometry" />
        </mxCell>
        <mxCell id="xrPw1rmMllOHUSr7kEiK-97" value="&lt;div&gt;Prestito&lt;/div&gt;Ridotto" style="whiteSpace=wrap;html=1;align=center;" parent="1" vertex="1">
          <mxGeometry x="380" y="147.5" width="100" height="40" as="geometry" />
        </mxCell>
        <mxCell id="xrPw1rmMllOHUSr7kEiK-98" value="" style="endArrow=none;html=1;rounded=0;exitX=0.5;exitY=0;exitDx=0;exitDy=0;entryX=0.5;entryY=0;entryDx=0;entryDy=0;" parent="1" source="xrPw1rmMllOHUSr7kEiK-96" target="xrPw1rmMllOHUSr7kEiK-97" edge="1">
          <mxGeometry width="50" height="50" relative="1" as="geometry">
            <mxPoint x="410" y="280" as="sourcePoint" />
            <mxPoint x="460" y="230" as="targetPoint" />
            <Array as="points">
              <mxPoint x="310" y="130" />
              <mxPoint x="360" y="130" />
              <mxPoint x="430" y="130" />
            </Array>
          </mxGeometry>
        </mxCell>
        <mxCell id="xrPw1rmMllOHUSr7kEiK-99" value="&lt;div&gt;Num. Giorni&lt;/div&gt;" style="text;strokeColor=none;fillColor=none;spacingLeft=4;spacingRight=4;overflow=hidden;rotatable=0;points=[[0,0.5],[1,0.5]];portConstraint=eastwest;fontSize=12;whiteSpace=wrap;html=1;" parent="1" vertex="1">
          <mxGeometry x="430" y="200" width="80" height="30" as="geometry" />
        </mxCell>
        <mxCell id="xrPw1rmMllOHUSr7kEiK-100" value="" style="ellipse;whiteSpace=wrap;html=1;aspect=fixed;" parent="1" vertex="1">
          <mxGeometry x="425" y="210" width="10" height="10" as="geometry" />
        </mxCell>
        <mxCell id="xrPw1rmMllOHUSr7kEiK-102" value="" style="endArrow=none;html=1;rounded=0;exitX=0.5;exitY=0;exitDx=0;exitDy=0;" parent="1" source="xrPw1rmMllOHUSr7kEiK-100" target="xrPw1rmMllOHUSr7kEiK-97" edge="1">
          <mxGeometry width="50" height="50" relative="1" as="geometry">
            <mxPoint x="410" y="280" as="sourcePoint" />
            <mxPoint x="460" y="230" as="targetPoint" />
          </mxGeometry>
        </mxCell>
        <mxCell id="xrPw1rmMllOHUSr7kEiK-103" value="" style="shape=flexArrow;endArrow=classic;html=1;rounded=0;entryX=0.5;entryY=1;entryDx=0;entryDy=0;fillColor=#000000;" parent="1" target="xrPw1rmMllOHUSr7kEiK-1" edge="1">
          <mxGeometry width="50" height="50" relative="1" as="geometry">
            <mxPoint x="370" y="130" as="sourcePoint" />
            <mxPoint x="460" y="230" as="targetPoint" />
          </mxGeometry>
        </mxCell>
      </root>
    </mxGraphModel>
  </diagram>
</mxfile>
